<?xml version="1.0" encoding="UTF-8"?>
<svg xmlns="http://www.w3.org/2000/svg" xmlns:xlink="http://www.w3.org/1999/xlink" width="375pt" height="374.999991pt" viewBox="0 0 375 374.999991" version="1.2">
<g id="surface1">
<path style=" stroke:none;fill-rule:nonzero;fill:rgb(54.899597%,32.159424%,100%);fill-opacity:1;" d="M 313.78125 186.203125 C 313.78125 255.945312 257.242188 312.488281 187.5 312.488281 C 117.757812 312.488281 61.21875 255.945312 61.21875 186.203125 C 61.21875 116.457031 117.757812 59.914062 187.5 59.914062 C 257.242188 59.914062 313.78125 116.457031 313.78125 186.203125 Z M 313.78125 186.203125 "/>
<path style="fill:none;stroke-width:5.622238;stroke-linecap:butt;stroke-linejoin:miter;stroke:rgb(100%,100%,100%);stroke-opacity:1;stroke-miterlimit:4;" d="M 65.085125 159.000599 L 48.759605 159.000599 L 59.375055 112.808264 L 27.7508 112.808264 L 17.099943 159.000599 L 0.62958 159.000599 L 24.895765 54.062789 L 41.403144 54.062789 L 31.484554 97.070167 L 63.144216 97.070167 L 73.0274 54.062789 L 89.388325 54.062789 Z M 65.085125 159.000599 " transform="matrix(2.427182,0,0,2.427182,76.675019,-73.669426)"/>
</g>
</svg>
